{
    "asset" : {
        "generator" : "Khronos glTF Blender I/O v1.7.33",
        "version" : "2.0"
    },
    "scene" : 0,
    "scenes" : [
        {
            "name" : "Scene",
            "nodes" : [
                4
            ]
        }
    ],
    "nodes" : [
        {
            "mesh" : 0,
            "name" : "Object_0"
        },
        {
            "children" : [
                0
            ],
            "name" : "TropicalLeaf_obj_cleaner_materialmerger_gles"
        },
        {
            "children" : [
                1
            ],
            "name" : "Sketchfab_model",
            "rotation" : [
                -0.7071068286895752,
                0,
                0,
                0.7071067094802856
            ]
        },
        {
            "children" : [
                2
            ],
            "name" : "Meshes",
            "scale" : [
                89.22400665283203,
                89.22400665283203,
                89.22400665283203
            ]
        },
        {
            "children" : [
                3
            ],
            "name" : "scene",
            "rotation" : [
                0.7071068286895752,
                0,
                0,
                0.7071067094802856
            ]
        }
    ],
    "meshes" : [
        {
            "name" : "Object_0",
            "primitives" : [
                {
                    "attributes" : {
                        "POSITION" : 0
                    },
                    "indices" : 1
                }
            ]
        }
    ],
    "accessors" : [
        {
            "bufferView" : 0,
            "componentType" : 5126,
            "count" : 2901,
            "max" : [
                0.004978000186383724,
                -0.06602700054645538,
                1.0875929594039917
            ],
            "min" : [
                -3.0651988983154297,
                -4.111173629760742,
                -2.573197364807129
            ],
            "type" : "VEC3"
        },
        {
            "bufferView" : 1,
            "componentType" : 5123,
            "count" : 17088,
            "type" : "SCALAR"
        }
    ],
    "bufferViews" : [
        {
            "buffer" : 0,
            "byteLength" : 34812,
            "byteOffset" : 0
        },
        {
            "buffer" : 0,
            "byteLength" : 34176,
            "byteOffset" : 34812
        }
    ],
    "buffers" : [
        {
            "byteLength" : 68988,
            "uri" : "data:application/octet-stream;base64,"
        }
    ]
}
